<svg xmlns="http://www.w3.org/2000/svg" xml:space="preserve" x="0px" y="0px" viewBox="0 0 100 125"><path d="M94.183 63.101a42.2 42.2 0 0 0-1.067-.633 10.05 10.05 0 0 0-.102-1.058 1.358 1.358 0 0 0 1.181-1.959c-1.444-3.823-5.127-6.382-9.209-6.382H83.64v-2.331c5.219-1.42 9.648-2.973 10.952-5.497.485-.939.538-1.975.152-2.995-.282-.746-1.861-4.955-3.095-7.61-1.467-3.155-5.979-3.155-7.679-3.155-.207 0-13.445.012-16.123.007l-.067-.14c4.164-.603 5.644-2.495 7.659-7.261.131-.31.243-.588.358-.871.189-.468.383-.948.683-1.622 4.321 1.181 10.53 3.026 10.592 3.045a3.359 3.359 0 0 0 2.585-.272 3.383 3.383 0 0 0 1.636-2.027 3.396 3.396 0 0 0-.271-2.595 3.38 3.38 0 0 0-2.019-1.643c-.075-.022-7.579-2.255-11.967-3.436a4.625 4.625 0 0 0-1.939-.094c.337-.778.694-1.615 1.065-2.536.344-.855 1.584-.857 2.541-.716a3.628 3.628 0 0 0 2.739 3.057l4.712 1.09a3.616 3.616 0 0 0 4.387-2.653c.012-.048.153-1.205.225-1.603.324-1.792-.528-3.399-2.438-4.249a865.346 865.346 0 0 0-4.617-1.854 3.617 3.617 0 0 0-4.385 2.653l-.213.862c-3.805-.574-5.082 1.437-5.466 2.391-.553 1.373-5.618 13.157-5.932 13.496-.41.177-1.892.234-2.929.256-1.06-2.494-2.535-5.8-6.282-5.8H41.525c-3.724 0-5.211 3.308-6.282 5.8-1.05-.022-2.553-.077-2.924-.249-.312-.326-5.385-12.129-5.938-13.502-.384-.954-1.662-2.965-5.466-2.391l-.213-.863a3.618 3.618 0 0 0-4.388-2.653c-.061.015-4.603 1.848-4.617 1.854-1.911.85-2.682 2.444-2.438 4.249.07.522.213 1.555.224 1.603a3.619 3.619 0 0 0 4.365 2.659l4.756-1.1a3.634 3.634 0 0 0 2.714-3.051c.957-.142 2.199-.14 2.544.716.371.921.728 1.758 1.065 2.536a4.625 4.625 0 0 0-1.939.093c-4.387 1.181-11.892 3.413-11.967 3.436a3.375 3.375 0 0 0-2.019 1.643 3.396 3.396 0 0 0-.271 2.595 3.387 3.387 0 0 0 1.637 2.028 3.358 3.358 0 0 0 2.585.271c.061-.018 6.27-1.864 10.591-3.044.3.674.495 1.154.684 1.622.114.283.227.561.358.871 2.014 4.764 3.493 6.657 7.654 7.26l-.066.141c-2.184.002-17.839-.02-18.169-.02-1.29 0-3.974 0-5.113 2.393-1.118 2.348-3.313 7.667-3.594 8.345-.421 1.014-.396 2.049.073 2.994 1.294 2.607 5.787 4.138 11.367 5.638v2.231H15.04c-4.157 0-7.885 2.642-9.278 6.573a1.367 1.367 0 0 0 .424 1.516c.238.194.527.293.819.301-.05.333-.078.67-.095 1.008a42.2 42.2 0 0 0-1.067.633c-.404.248-.65.688-.65 1.164v4.672a1.355 1.355 0 0 0 1.699 1.318v.753c-.329.189-.675.393-1.049.623-.404.248-.65.688-.65 1.164v4.672a1.355 1.355 0 0 0 1.699 1.318v.753c-.329.189-.675.393-1.049.623-.404.248-.65.688-.65 1.164v4.672c0 .499.271.957.707 1.197.393.216.862.22 1.258.021.054.202.117.4.186.597-.135.075-.27.15-.413.232a1.366 1.366 0 0 0-.517 1.843A9.856 9.856 0 0 0 15.04 95h6.791a9.848 9.848 0 0 0 8.626-5.118 1.366 1.366 0 0 0-.517-1.843c-.119-.068-.231-.13-.345-.193.061-.214.116-.43.163-.648.384.175.832.164 1.209-.042.438-.238.711-.698.711-1.199V81.32c0-.475-.246-.916-.65-1.164-.194-.119-.379-.23-.561-.338.272-.032.537-.141.755-.339l6.897-6.276c1.148 1.711 2.85 2.777 4.945 3.025 2.005.237 4.68.373 7.338.373 1.842 0 4.482-.066 6.598-.379 2.06-.304 3.718-1.361 4.865-3.048l6.929 6.304c.221.201.489.31.764.34-.181.108-.366.218-.56.337-.404.248-.65.688-.65 1.164v4.672c0 .499.271.957.707 1.197.393.216.862.22 1.257.021.054.202.117.4.186.597-.135.074-.27.15-.413.231a1.367 1.367 0 0 0-.517 1.843A9.85 9.85 0 0 0 78.196 95h6.791a9.85 9.85 0 0 0 8.626-5.117 1.367 1.367 0 0 0-.517-1.844c-.119-.068-.231-.13-.345-.193.061-.214.116-.43.163-.648.384.175.832.164 1.209-.042.438-.238.711-.698.711-1.199V81.32c0-.475-.246-.916-.65-1.164-.374-.23-.72-.433-1.049-.622v-.788c.328.085.681.049.988-.119.438-.238.711-.698.711-1.199v-4.637c0-.475-.246-.916-.65-1.164-.374-.23-.72-.433-1.049-.622v-.788c.328.085.681.049.988-.119.438-.238.711-.698.711-1.199v-4.637a1.365 1.365 0 0 0-.651-1.161zM81.416 10.624l.545-2.205c.101-.407.462-.71.877-.691.302.014 4.41 1.737 4.41 1.737 1.038.468.916.959.864 1.169-.012.048-.221 1.579-.221 1.579-.118.377-.466.662-.861.635-.197-.014-4.954-1.122-4.954-1.122a.894.894 0 0 1-.557-.413.914.914 0 0 1-.103-.689zM17.972 11.72l-4.756 1.1a.91.91 0 0 1-1.081-.608s-.185-1.332-.221-1.579c-.031-.215-.174-.701.864-1.169l4.263-1.725a.908.908 0 0 1 1.024.678l.545 2.206c.121.487-.175.981-.638 1.097zm70.414 51.652c.098 0 .986.05 3.731 1.665v1.151a1.319 1.319 0 0 0-.341-.049c-.128 0-.25.024-.368.057-1.152-.511-2.164-.773-3.021-.774h-.004c-1.943 0-3.543 1.229-4.829 2.216-.694.533-1.559 1.197-1.963 1.197-.436 0-1.415-.73-2.13-1.264-1.351-1.007-2.881-2.149-4.662-2.149h-.004c-.856.001-1.904.289-3.131.857a1.376 1.376 0 0 0-.258-.026c-.118 0-.231.02-.341.049v-1.265c2.745-1.615 3.633-1.665 3.731-1.665.75 0 1.358-.611 1.358-1.364s-.608-1.364-1.358-1.364c-.374 0-.907.062-1.764.375.101-.362.23-.716.387-1.058.744-.289 1.176-.339 1.38-.339.882 0 2.03.856 3.042 1.611 1.242.927 2.416 1.802 3.75 1.802 1.324 0 2.436-.854 3.614-1.758 1.06-.814 2.156-1.655 3.181-1.655.254 0 .691.058 1.362.306.164.353.298.717.403 1.091-.856-.313-1.39-.375-1.763-.375-.75 0-1.358.611-1.358 1.364s.606 1.364 1.356 1.364zm-18.39 7.664-.55-.764c.2.039.405.033.601-.018v.753l-.051.029zm18.81-14.121a4.72 4.72 0 0 0-.422-.02c-1.943 0-3.543 1.229-4.829 2.216-.694.533-1.559 1.197-1.963 1.197-.436 0-1.415-.73-2.13-1.264-1.351-1.007-2.882-2.149-4.666-2.149-.137 0-.278.007-.422.021a7.101 7.101 0 0 1 3.823-1.119h6.791a7.088 7.088 0 0 1 3.818 1.118zm-7.882-3.846h-2.728c-4.156 0-7.885 2.642-9.278 6.573a1.367 1.367 0 0 0 .424 1.516c.238.194.526.293.818.301-.05.333-.078.669-.095 1.008a42.2 42.2 0 0 0-1.067.633c-.404.248-.65.688-.65 1.164v4.483l-3.789-5.264c.611-3.016 1.383-5.611 3.363-7.479 1.763-1.663 6.944-2.994 11.954-4.281l1.047-.27v1.616zM69.261 26.756c.882-.61 1.431-1.909 2.439-4.295.388-.916.87-2.057 1.463-3.364.384-.848 1.775-2.173 3.171-1.797 4.353 1.172 11.823 3.394 11.898 3.416a.685.685 0 0 1 .458.847.68.68 0 0 1-.842.46c-.063-.019-11.075-3.177-11.086-3.179-1.633-.398-2.304.633-2.515 1.095-.466 1.016-1.182 2.785-1.306 3.081-1.924 4.553-2.794 5.429-6.377 5.728-.194-.42-.394-.855-.592-1.292 1.693-.074 2.636-.248 3.289-.7zm-12.336-5.063c-.447 2.659-.902 5.03-1.125 5.832-.122.438-.267.462-.396.484-2.678.452-7.754.564-10.755.004-.152-.028-.309-.058-.41-.457-.232-.916-.684-3.292-1.121-5.863h13.807zm-29.838 1.328c-.125-.296-.232-.561-.342-.831a46.786 46.786 0 0 0-.965-2.249c-.212-.462-.88-1.494-2.516-1.096l-11.085 3.179a.676.676 0 0 1-.843-.461.68.68 0 0 1 .458-.847c.075-.022 7.545-2.244 11.898-3.416 1.399-.376 2.788.949 3.172 1.797a136.282 136.282 0 0 1 1.474 3.391c.997 2.359 1.546 3.658 2.428 4.268.652.451 1.593.625 3.281.701l-.593 1.292c-3.575-.301-4.444-1.179-6.367-5.728zM7.802 43.983c-.085-.17-.143-.377.003-.728.282-.68 2.45-5.935 3.537-8.217.254-.534.771-.842 2.663-.842l19.031.019a1.358 1.358 0 0 0 1.224-.777c.094-.198 2.318-4.889 3.419-7.455.962-2.242 1.687-3.544 2.725-4.047.418 2.473.916 5.162 1.202 6.294.337 1.327 1.265 2.226 2.546 2.465 1.581.295 3.631.424 5.666.424 2.25 0 4.48-.157 6.036-.419 1.273-.215 2.182-1.08 2.561-2.438.296-1.06.803-3.805 1.223-6.322 1.039.504 1.759 1.805 2.708 4.04 1.271 2.993 3.337 7.285 3.425 7.467.226.47.7.769 1.22.77l16.981-.005c2.974 0 4.729.532 5.217 1.581 1.19 2.56 2.734 6.676 3.017 7.425.112.297.105.52-.024.771-1.05 2.032-7.664 3.731-12.978 5.096-1.824.469-5.321 1.413-5.344 1.417-7.129 1.31-15.375 2.003-23.846 2.003-8.6 0-16.916-.711-24.111-2.055-1.616-.465-6.902-1.841-7.782-2.063-4.697-1.189-9.486-2.727-10.319-4.404zM57.504 65.26a82.43 82.43 0 0 1-7.321.309c-2.708 0-5.331-.118-7.648-.34-.091-.493-.185-1.015-.28-1.555 2.445.214 5.155.328 7.942.328 2.647 0 5.235-.103 7.587-.297-.095.542-.189 1.064-.28 1.555zm.749-4.333a89.03 89.03 0 0 1-8.056.348c-2.985 0-5.873-.133-8.416-.383-.094-.57-.185-1.135-.271-1.683 2.67.24 5.643.367 8.701.367 2.904 0 5.742-.115 8.31-.333-.086.55-.176 1.115-.268 1.684zm-8.07 7.37c2.349 0 4.65-.088 6.756-.253-.032.132-.062.254-.089.353-.178.648-.442.693-.617.723-3.091.53-8.95.662-12.415.004-.244-.046-.493-.138-.632-.696-.03-.118-.062-.259-.097-.412 2.195.184 4.611.281 7.094.281zm8.744-11.827c-2.653.248-5.645.38-8.717.38-3.234 0-6.362-.145-9.114-.418a51.918 51.918 0 0 1-.184-1.47 154.387 154.387 0 0 0 18.202 0 59.52 59.52 0 0 1-.187 1.508zm-39.472-4.919c.22.057 5.624 1.515 5.821 1.552 3.069.886 5.679 1.831 6.834 2.907 2.006 1.869 2.799 4.347 3.416 7.387-.011.014-.025.025-.035.04l-3.813 5.297v-4.47c0-.475-.246-.916-.65-1.164a42.2 42.2 0 0 0-1.067-.633 10.05 10.05 0 0 0-.102-1.058 1.358 1.358 0 0 0 1.181-1.959c-1.444-3.823-5.127-6.382-9.209-6.382h-2.376v-1.517zm10.524 18.667c.203.053.414.059.619.016l-.574.798-.045-.026v-.788zM15.04 55.796h6.791c1.382 0 2.7.404 3.819 1.118a4.72 4.72 0 0 0-.422-.02c-1.943 0-3.543 1.229-4.829 2.216-.695.533-1.559 1.197-1.963 1.197-.436 0-1.415-.73-2.13-1.264-1.351-1.008-2.882-2.15-4.666-2.15-.137 0-.278.007-.423.021a7.112 7.112 0 0 1 3.823-1.118zm-4.776 4.166c.744-.289 1.176-.339 1.38-.34.882 0 2.03.856 3.043 1.611 1.242.927 2.416 1.802 3.75 1.802 1.324 0 2.436-.854 3.614-1.758 1.06-.814 2.156-1.655 3.181-1.655.254 0 .691.058 1.362.306.164.353.298.717.402 1.091-.856-.312-1.39-.375-1.764-.375-.75 0-1.358.611-1.358 1.364s.608 1.364 1.358 1.364c.098 0 .986.05 3.731 1.665v1.151a1.319 1.319 0 0 0-.341-.049c-.128 0-.25.024-.368.057-1.152-.511-2.164-.773-3.021-.774h-.004c-1.943 0-3.543 1.229-4.829 2.216-.695.533-1.559 1.197-1.963 1.197-.436 0-1.415-.73-2.13-1.264-1.351-1.008-2.881-2.15-4.662-2.15h-.004c-.856.001-1.904.289-3.131.857a1.376 1.376 0 0 0-.258-.026c-.118 0-.231.02-.341.049v-1.265c2.745-1.615 3.633-1.665 3.731-1.665.75 0 1.358-.611 1.358-1.364s-.608-1.364-1.358-1.364c-.374 0-.907.062-1.764.375.1-.361.228-.714.386-1.056zm-.655 8.808c1.146-.537 1.768-.62 2.033-.62h.001c.882 0 2.03.856 3.043 1.611 1.242.927 2.416 1.802 3.75 1.802 1.324 0 2.436-.854 3.614-1.758 1.06-.814 2.156-1.655 3.179-1.655h.002c.502 0 1.204.211 2.033.591v.909c-1.016-.402-1.621-.477-2.032-.477-.75 0-1.358.611-1.358 1.364 0 .753.608 1.364 1.358 1.364.098 0 .986.05 3.731 1.665v1.373a1.319 1.319 0 0 0-.341-.049l-.008.001c-1.302-.621-2.435-.939-3.381-.94h-.004c-1.943 0-3.543 1.229-4.829 2.216-.695.533-1.559 1.197-1.963 1.197-.436 0-1.415-.73-2.13-1.264-1.351-1.007-2.882-2.149-4.663-2.149h-.003c-.924.001-2.072.339-3.426.999a1.312 1.312 0 0 0-.303.045v-1.43c2.745-1.615 3.633-1.665 3.731-1.665.75 0 1.358-.611 1.358-1.364 0-.753-.608-1.364-1.358-1.364-.411 0-1.016.076-2.032.477v-.879zm0 8.529c1.146-.537 1.768-.62 2.033-.62h.001c.882 0 2.03.856 3.043 1.611 1.242.927 2.416 1.802 3.75 1.802 1.324 0 2.436-.854 3.614-1.758 1.06-.814 2.156-1.655 3.179-1.655h.002c.502 0 1.204.211 2.033.591v.909c-1.016-.402-1.621-.477-2.032-.477-.75 0-1.358.611-1.358 1.364 0 .753.608 1.364 1.358 1.364.098 0 .986.05 3.731 1.665v1.494c-1.451-.736-2.7-1.108-3.73-1.109h-.003c-1.943 0-3.543 1.229-4.829 2.216-.695.533-1.559 1.197-1.963 1.197-.436 0-1.415-.73-2.13-1.264-1.351-1.007-2.882-2.149-4.663-2.149h-.003c-.993.001-2.242.386-3.73 1.148v-1.534c2.745-1.615 3.633-1.665 3.731-1.665.75 0 1.358-.611 1.358-1.364 0-.753-.608-1.364-1.358-1.364-.411 0-1.016.076-2.032.477v-.879zm15.622 8.93c-.75 0-1.358.611-1.358 1.364 0 .753.608 1.364 1.358 1.364.109 0 .643.044 2.066.754a7.121 7.121 0 0 1-5.466 2.563H15.04a7.121 7.121 0 0 1-5.466-2.563c1.424-.709 1.957-.754 2.066-.754.75 0 1.358-.611 1.358-1.364 0-.753-.608-1.364-1.358-1.364-.372 0-.917.059-1.824.398a4.762 4.762 0 0 1-.169-.818c1.122-.521 1.732-.602 1.995-.602h.001c.882 0 2.03.856 3.043 1.611 1.242.927 2.416 1.802 3.75 1.802 1.324 0 2.436-.854 3.614-1.758 1.06-.814 2.156-1.655 3.179-1.655h.001c.495 0 1.186.205 2 .576a7.257 7.257 0 0 1-.134.86c-.931-.352-1.487-.414-1.865-.414zm6.447-10.845V73.39l4.532-6.295c.176.963.366 1.95.596 2.968.041.181.088.357.137.531l-5.265 4.79zm24.928-1.859c-1.524.225-3.727.349-6.202.349-2.557 0-5.116-.129-7.021-.355-2.555-.302-3.546-2.375-3.927-4.061-.309-1.366-.548-2.702-.778-3.993-.743-4.159-1.452-8.094-4.308-11.043 1.25.133 2.517.251 3.801.351.264 2.994 1.815 12.056 2.38 14.317.37 1.481 1.351 2.445 2.763 2.713 1.806.343 4.148.492 6.474.492 2.572 0 5.123-.183 6.903-.487 1.381-.237 2.367-1.191 2.778-2.686.567-2.064 2.125-11.335 2.388-14.35 1.284-.1 2.555-.216 3.804-.349-2.719 2.843-3.421 6.606-4.158 10.582-.266 1.439-.542 2.927-.922 4.418-.618 2.424-1.955 3.804-3.975 4.102zm6.606-3.426c.254-.997.459-1.974.646-2.933l4.491 6.238v1.99l-5.277-4.801c.049-.164.097-.326.14-.494zm25.174 16.13c-.75 0-1.358.611-1.358 1.364 0 .753.608 1.364 1.358 1.364.109 0 .643.044 2.066.754a7.124 7.124 0 0 1-5.466 2.563h-6.791a7.121 7.121 0 0 1-5.466-2.563c1.424-.709 1.957-.754 2.066-.754.75 0 1.358-.611 1.358-1.364 0-.753-.608-1.364-1.358-1.364-.372 0-.917.059-1.824.398a4.773 4.773 0 0 1-.169-.819c1.122-.521 1.732-.602 1.994-.602h.001c.882 0 2.03.856 3.043 1.611 1.242.927 2.416 1.802 3.75 1.802 1.324 0 2.436-.854 3.614-1.758 1.06-.814 2.156-1.655 3.179-1.655h.001c.495 0 1.186.205 2.001.576a7.257 7.257 0 0 1-.134.86c-.931-.351-1.487-.413-1.865-.413zm0-8.528c-.75 0-1.358.611-1.358 1.364 0 .753.608 1.364 1.358 1.364.098 0 .986.05 3.731 1.665v1.494c-1.451-.736-2.7-1.108-3.73-1.109h-.003c-1.943 0-3.543 1.229-4.829 2.216-.695.533-1.559 1.197-1.964 1.197-.436 0-1.415-.73-2.13-1.264-1.351-1.007-2.882-2.149-4.663-2.149h-.003c-.993.001-2.242.386-3.729 1.148v-1.534c2.745-1.615 3.633-1.665 3.731-1.665.75 0 1.358-.611 1.358-1.364 0-.753-.608-1.364-1.358-1.364-.411 0-1.016.076-2.032.477v-.88c1.146-.537 1.768-.62 2.033-.62h.001c.882 0 2.03.856 3.043 1.611 1.242.927 2.416 1.802 3.75 1.802 1.324 0 2.436-.854 3.614-1.758 1.06-.814 2.156-1.655 3.179-1.655h.001c.502 0 1.205.211 2.033.591v.909c-1.017-.4-1.622-.476-2.033-.476zm0-8.528c-.75 0-1.358.611-1.358 1.364 0 .753.608 1.364 1.358 1.364.098 0 .986.05 3.731 1.665v1.373a1.319 1.319 0 0 0-.341-.049l-.008.001c-1.302-.621-2.435-.939-3.381-.94h-.004c-1.943 0-3.543 1.229-4.829 2.216-.694.533-1.559 1.197-1.963 1.197-.436 0-1.415-.73-2.13-1.264-1.351-1.007-2.882-2.149-4.663-2.149h-.003c-.924.001-2.072.339-3.426.999a1.312 1.312 0 0 0-.303.045v-1.43c2.745-1.615 3.633-1.665 3.731-1.665.75 0 1.358-.611 1.358-1.364 0-.753-.608-1.364-1.358-1.364-.411 0-1.016.076-2.032.477v-.88c1.146-.537 1.768-.62 2.033-.62h.001c.882 0 2.03.856 3.042 1.611 1.242.927 2.416 1.802 3.75 1.802 1.324 0 2.436-.854 3.614-1.758 1.06-.814 2.156-1.655 3.179-1.655h.001c.502 0 1.204.211 2.033.591v.909c-1.016-.4-1.621-.476-2.032-.476z"/><path d="M31.319 49.996c1.681.11 3.056-1.376 3.056-3.068v-8.524a3.065 3.065 0 0 0-3.056-3.068H14.346c-1.82 0-2.328 1.218-2.699 2.107l-1.457 3.98c-.363 1.069-.126 1.888.137 2.386.573 1.088 1.688 1.534 2.301 1.703 4.953 1.366 17.452 4.403 18.691 4.484zM27.774 38.58c2.059 0 3.735 1.682 3.735 3.75s-1.676 3.75-3.735 3.75-3.735-1.682-3.735-3.75 1.675-3.75 3.735-3.75zm-13.432-.517h8.59a6.445 6.445 0 0 0-1.016 6.965c-3.276-.784-6.598-1.601-8.569-2.144-.352-.097-.574-.263-.62-.349-.013-.026 1.559-4.357 1.615-4.472zM69.04 49.996c.88-.081 13.738-3.117 18.692-4.483.606-.167 1.709-.608 2.285-1.684.266-.497.509-1.315.158-2.39-.335-1.026-.595-1.706-.895-2.494a94.892 94.892 0 0 1-.521-1.387c-.304-.831-.812-2.223-2.746-2.223H69.04a3.065 3.065 0 0 0-3.056 3.068v8.524c0 1.692 1.378 3.223 3.056 3.069zm3.559-3.916c-2.059 0-3.735-1.682-3.735-3.75s1.676-3.75 3.735-3.75 3.735 1.682 3.735 3.75-1.675 3.75-3.735 3.75zm13.438-8.017c.062.136 1.606 4.439 1.586 4.475-.043.08-.246.244-.611.344-1.967.543-5.282 1.358-8.553 2.141a6.456 6.456 0 0 0 .592-2.694 6.457 6.457 0 0 0-1.61-4.267h8.572l.024.001zM50.013 51.357a3.406 3.406 0 0 0 3.395-3.409v-9.541a3.406 3.406 0 0 0-3.395-3.409 3.406 3.406 0 0 0-3.395 3.409v9.541a3.406 3.406 0 0 0 3.395 3.409zm-.679-12.95c0-.376.305-.682.679-.682.374 0 .679.306.679.682v9.541a.682.682 0 0 1-.679.682.68.68 0 0 1-.679-.682v-9.541zM58.507 51.357a3.406 3.406 0 0 0 3.395-3.409v-9.541a3.406 3.406 0 0 0-3.395-3.409 3.406 3.406 0 0 0-3.395 3.409v9.541a3.406 3.406 0 0 0 3.395 3.409zm-.679-12.95c0-.376.305-.682.679-.682.374 0 .679.306.679.682v9.541a.682.682 0 0 1-.679.682.682.682 0 0 1-.679-.682v-9.541zM41.52 51.357a3.406 3.406 0 0 0 3.395-3.409v-9.541c0-1.88-1.523-3.409-3.395-3.409s-3.395 1.529-3.395 3.409v9.541a3.404 3.404 0 0 0 3.395 3.409zm-.68-12.95c0-.376.305-.682.679-.682s.679.306.679.682v9.541c0 .376-.305.682-.679.682s-.679-.306-.679-.682v-9.541z"/><text x="0" y="115" fill="#000000" font-size="5px" font-weight="bold" font-family="'Helvetica Neue', Helvetica, Arial-Unicode, Arial, Sans-serif">Created by Viktor Turchyn</text><text x="0" y="120" fill="#000000" font-size="5px" font-weight="bold" font-family="'Helvetica Neue', Helvetica, Arial-Unicode, Arial, Sans-serif">from the Noun Project</text></svg>